<svg width="283" height="61" viewBox="0 0 283 61" fill="none" xmlns="http://www.w3.org/2000/svg">
<path d="M34.2631 47.3781L23.6246 53.6055C23.2589 53.8196 23.2565 54.3475 23.6203 54.5649L34.2571 60.921C34.431 61.0249 34.6475 61.0263 34.8227 60.9247L45.849 54.5267C46.019 54.4281 46.1245 54.2471 46.1265 54.0505L46.3992 27.743C46.4036 27.3112 45.9366 27.0386 45.5629 27.2547L34.8172 33.4691C34.6449 33.5687 34.5389 33.7526 34.5389 33.9516V46.8972C34.5389 47.0951 34.4339 47.2782 34.2631 47.3781Z" fill="url(#paint0_linear_1_9978)"/>
<mask id="mask0_1_9978" style="mask-type:alpha" maskUnits="userSpaceOnUse" x="23" y="27" width="24" height="34">
<path d="M34.2631 47.3782L23.6246 53.6056C23.2589 53.8197 23.2565 54.3475 23.6203 54.5649L34.2571 60.9211C34.431 61.025 34.6475 61.0264 34.8227 60.9247L45.849 54.5268C46.019 54.4281 46.1245 54.2471 46.1265 54.0505L46.3992 27.743C46.4036 27.3112 45.9366 27.0386 45.5629 27.2548L34.8172 33.4692C34.6449 33.5688 34.5389 33.7526 34.5389 33.9516V46.8972C34.5389 47.0951 34.4339 47.2782 34.2631 47.3782Z" fill="url(#paint1_linear_1_9978)"/>
</mask>
<g mask="url(#mask0_1_9978)">
<path d="M46.7026 50.9611L30.875 59.9895L33.8845 61.9958L46.7026 54.7508V50.9611Z" fill="url(#paint2_linear_1_9978)"/>
</g>
<path d="M0.278279 26.6043L46.1448 0.0757149C46.5164 -0.139179 46.9812 0.128932 46.9812 0.558141V12.9298C46.9812 13.1281 46.8758 13.3115 46.7044 13.4114L12.1472 33.5404C11.9758 33.6402 11.8704 33.8236 11.8704 34.0219V45.9667C11.8704 46.3955 12.3343 46.6636 12.7058 46.4497L23.3887 40.299C23.5622 40.1991 23.776 40.1999 23.9487 40.3012L34.4345 46.4503C34.8015 46.6655 34.8017 47.1961 34.4347 47.4116L12.1476 60.4976C11.9761 60.5983 11.7639 60.6 11.5908 60.502L0.282696 54.0986C0.10799 53.9997 0 53.8144 0 53.6137V27.0867C0 26.8878 0.106059 26.7039 0.278279 26.6043Z" fill="url(#paint3_linear_1_9978)"/>
<mask id="mask1_1_9978" style="mask-type:alpha" maskUnits="userSpaceOnUse" x="0" y="0" width="47" height="61">
<path d="M0.278279 26.6043L46.1448 0.0757149C46.5164 -0.139179 46.9812 0.128932 46.9812 0.558141V12.9298C46.9812 13.1281 46.8758 13.3115 46.7044 13.4114L12.1472 33.5404C11.9758 33.6402 11.8704 33.8236 11.8704 34.0219V45.9667C11.8704 46.3955 12.3343 46.6636 12.7058 46.4497L23.3887 40.299C23.5622 40.1991 23.776 40.1999 23.9487 40.3012L34.4345 46.4503C34.8015 46.6655 34.8017 47.1961 34.4347 47.4116L12.1476 60.4976C11.9761 60.5983 11.7639 60.6 11.5908 60.502L0.282696 54.0986C0.10799 53.9997 0 53.8144 0 53.6137V27.0867C0 26.8878 0.106059 26.7039 0.278279 26.6043Z" fill="url(#paint4_linear_1_9978)"/>
</mask>
<g mask="url(#mask1_1_9978)">
<path d="M5.46177 30.2293L48.2631 5.48475L47.4829 -1.6488L-1.3374 26.6625V54.305L11.3693 61.5501L35.7794 47.2829L30.4292 43.8276L11.9266 54.305L5.46177 50.9612V30.2293Z" fill="url(#paint5_linear_1_9978)"/>
</g>
<mask id="mask2_1_9978" style="mask-type:alpha" maskUnits="userSpaceOnUse" x="0" y="0" width="47" height="61">
<path d="M0.278279 26.6043L46.1448 0.0757149C46.5164 -0.139179 46.9812 0.128932 46.9812 0.558141V12.9298C46.9812 13.1281 46.8758 13.3115 46.7044 13.4114L12.1472 33.5404C11.9758 33.6402 11.8704 33.8236 11.8704 34.0219V45.9667C11.8704 46.3955 12.3343 46.6636 12.7058 46.4497L23.3887 40.299C23.5622 40.1991 23.776 40.1999 23.9487 40.3012L34.4345 46.4503C34.8015 46.6655 34.8017 47.1961 34.4347 47.4116L12.1476 60.4976C11.9761 60.5983 11.7639 60.6 11.5908 60.502L0.282696 54.0986C0.10799 53.9997 0 53.8144 0 53.6137V27.0867C0 26.8878 0.106059 26.7039 0.278279 26.6043Z" fill="url(#paint6_linear_1_9978)"/>
</mask>
<g mask="url(#mask2_1_9978)">
<path d="M3.45528 28.8917L47.3712 4.03575L48.1515 -1.6488L-0.780273 26.3281V54.7509L11.3691 62.3303L36.0021 47.5059L32.5468 45.0537L11.9264 57.0916L3.45528 52.4102V28.8917Z" fill="url(#paint7_linear_1_9978)"/>
</g>
<path d="M64.6089 47L55.6031 22.0973H61.6484L66.8977 38.243L72.7191 22.0973H77.2966L83.1677 38.243L88.3921 22.0973H94.4623L85.4565 47H80.9039L75.0078 30.8543L69.0869 47H64.6089ZM115.633 22.0973H121.305V47H115.633V43.6415C114.97 44.7693 113.892 45.6981 112.399 46.4278C110.923 47.141 109.356 47.4976 107.697 47.4976C104.347 47.4976 101.511 46.2454 99.189 43.741C96.8837 41.2366 95.731 38.1601 95.731 34.5113C95.731 30.8958 96.8837 27.8358 99.189 25.3314C101.511 22.8271 104.347 21.5749 107.697 21.5749C109.339 21.5749 110.906 21.9398 112.399 22.6695C113.892 23.3993 114.97 24.328 115.633 25.4558V22.0973ZM108.867 42.0991C110.26 42.0991 111.578 41.7508 112.822 41.0542C114.083 40.3576 115.02 39.4703 115.633 38.3923V30.7548C115.02 29.6436 114.091 28.7397 112.847 28.0431C111.603 27.33 110.276 26.9734 108.867 26.9734C106.727 26.9734 104.936 27.6948 103.493 29.1377C102.05 30.5641 101.329 32.3553 101.329 34.5113C101.329 36.6674 102.05 38.4752 103.493 39.9347C104.936 41.3776 106.727 42.0991 108.867 42.0991ZM141.755 41.7508L142.078 46.7512C141.266 47.1493 140.246 47.3483 139.018 47.3483C136.215 47.3483 133.952 46.4942 132.227 44.7859C130.502 43.061 129.639 40.6893 129.639 37.6708V27.4958H124.863V22.0973H129.639V15.4052H135.287V22.0973H141.83V27.4958H135.287V37.422C135.287 38.8318 135.718 39.9596 136.58 40.8054C137.459 41.6347 138.546 42.0493 139.839 42.0493C140.453 42.0493 141.092 41.9498 141.755 41.7508ZM153.224 47L144.218 22.0973H150.263L155.512 38.243L161.334 22.0973H165.911L171.782 38.243L177.007 22.0973H183.077L174.071 47H169.519L163.623 30.8543L157.702 47H153.224ZM204.248 22.0973H209.92V47H204.248V43.6415C203.585 44.7693 202.507 45.6981 201.014 46.4278C199.538 47.141 197.97 47.4976 196.312 47.4976C192.962 47.4976 190.126 46.2454 187.804 43.741C185.498 41.2366 184.346 38.1601 184.346 34.5113C184.346 30.8958 185.498 27.8358 187.804 25.3314C190.126 22.8271 192.962 21.5749 196.312 21.5749C197.954 21.5749 199.521 21.9398 201.014 22.6695C202.507 23.3993 203.585 24.328 204.248 25.4558V22.0973ZM197.481 42.0991C198.874 42.0991 200.193 41.7508 201.437 41.0542C202.697 40.3576 203.634 39.4703 204.248 38.3923V30.7548C203.634 29.6436 202.706 28.7397 201.462 28.0431C200.218 27.33 198.891 26.9734 197.481 26.9734C195.342 26.9734 193.551 27.6948 192.108 29.1377C190.665 30.5641 189.943 32.3553 189.943 34.5113C189.943 36.6674 190.665 38.4752 192.108 39.9347C193.551 41.3776 195.342 42.0991 197.481 42.0991ZM221.563 11.3252V47H215.916V11.3252H221.563ZM233.206 11.3252V47H227.558V11.3252H233.206ZM262.288 33.4416C262.288 34.4035 262.222 35.2245 262.089 35.9045H243.132C243.447 37.9279 244.251 39.5118 245.545 40.6562C246.855 41.8005 248.514 42.3727 250.521 42.3727C251.93 42.3727 253.224 42.0908 254.402 41.5269C255.579 40.9464 256.458 40.1752 257.039 39.2133L261.566 42.0991C260.638 43.7908 259.186 45.1176 257.213 46.0795C255.256 47.0249 252.992 47.4976 250.421 47.4976C248.049 47.4976 245.877 46.9337 243.903 45.8059C241.93 44.6615 240.362 43.0859 239.201 41.0791C238.057 39.0723 237.485 36.8499 237.485 34.4118C237.485 32.0402 238.049 29.8758 239.176 27.9187C240.321 25.9451 241.871 24.3944 243.829 23.2666C245.802 22.1388 247.967 21.5749 250.322 21.5749C252.527 21.5749 254.543 22.0973 256.367 23.1422C258.208 24.1871 259.651 25.6217 260.696 27.4461C261.757 29.2538 262.288 31.2524 262.288 33.4416ZM243.331 31.5509H256.317C256.168 29.9919 255.505 28.7231 254.327 27.7446C253.149 26.7495 251.707 26.2519 249.998 26.2519C248.323 26.2519 246.905 26.7246 245.744 27.67C244.583 28.5987 243.779 29.8924 243.331 31.5509ZM280.722 41.7508L281.046 46.7512C280.233 47.1493 279.213 47.3483 277.986 47.3483C275.183 47.3483 272.919 46.4942 271.194 44.7859C269.469 43.061 268.607 40.6893 268.607 37.6708V27.4958H263.83V22.0973H268.607V15.4052H274.254V22.0973H280.797V27.4958H274.254V37.422C274.254 38.8318 274.685 39.9596 275.548 40.8054C276.427 41.6347 277.513 42.0493 278.807 42.0493C279.42 42.0493 280.059 41.9498 280.722 41.7508Z" fill="url(#paint8_linear_1_9978)"/>
<defs>
<linearGradient id="paint0_linear_1_9978" x1="33.3373" y1="37.2" x2="53.6034" y2="56.6092" gradientUnits="userSpaceOnUse">
<stop stop-color="#A083EC"/>
<stop offset="1" stop-color="#666AE1"/>
</linearGradient>
<linearGradient id="paint1_linear_1_9978" x1="33.3373" y1="37.2001" x2="53.6034" y2="56.6093" gradientUnits="userSpaceOnUse">
<stop stop-color="#A083EC"/>
<stop offset="1" stop-color="#666AE1"/>
</linearGradient>
<linearGradient id="paint2_linear_1_9978" x1="37.7336" y1="54.2306" x2="43.0036" y2="64.8527" gradientUnits="userSpaceOnUse">
<stop stop-color="#A083EC"/>
<stop offset="1" stop-color="#666AE1"/>
</linearGradient>
<linearGradient id="paint3_linear_1_9978" x1="20.3585" y1="17.6863" x2="56.8749" y2="57.1631" gradientUnits="userSpaceOnUse">
<stop stop-color="#AB8DFB"/>
<stop offset="0.489583" stop-color="#766DD2"/>
<stop offset="1" stop-color="#666AE1"/>
</linearGradient>
<linearGradient id="paint4_linear_1_9978" x1="20.3585" y1="17.6863" x2="56.8749" y2="57.1631" gradientUnits="userSpaceOnUse">
<stop stop-color="#AB8DFB"/>
<stop offset="0.489583" stop-color="#766DD2"/>
<stop offset="1" stop-color="#666AE1"/>
</linearGradient>
<linearGradient id="paint5_linear_1_9978" x1="20.1562" y1="17.0768" x2="57.8803" y2="58.6816" gradientUnits="userSpaceOnUse">
<stop stop-color="#A083EC"/>
<stop offset="1" stop-color="#666AE1"/>
</linearGradient>
<linearGradient id="paint6_linear_1_9978" x1="20.3585" y1="17.6863" x2="56.8749" y2="57.1631" gradientUnits="userSpaceOnUse">
<stop stop-color="#AB8DFB"/>
<stop offset="0.489583" stop-color="#766DD2"/>
<stop offset="1" stop-color="#666AE1"/>
</linearGradient>
<linearGradient id="paint7_linear_1_9978" x1="35.8907" y1="14.0673" x2="-3.84393" y2="86.8958" gradientUnits="userSpaceOnUse">
<stop stop-color="#A083EC"/>
<stop offset="0.572917" stop-color="#9F8AF8"/>
<stop offset="1" stop-color="#666AE1"/>
</linearGradient>
<linearGradient id="paint8_linear_1_9978" x1="153.781" y1="18.0741" x2="167.225" y2="88.6871" gradientUnits="userSpaceOnUse">
<stop stop-color="#A083EC"/>
<stop offset="1" stop-color="#666AE1"/>
</linearGradient>
</defs>
</svg>
